<?xml version="1.0" encoding="UTF-8"?> <svg xmlns="http://www.w3.org/2000/svg" viewBox="0 0 150.54 59.5"><title>web_logo_sipa-group</title><g id="cf1d89bb-5fde-400a-ac6b-cb8549379106" data-name="Layer 2"><path d="M73.45,21.2a11.59,11.59,0,0,1-3.75-2.57l3-3.69a8.25,8.25,0,0,0,2.51,1.92,6,6,0,0,0,2.55.65,3.55,3.55,0,0,0,1.4-.24,1.62,1.62,0,0,0,.79-.63,1.8,1.8,0,0,0-.43-2.27A9.67,9.67,0,0,0,77,13.24c-.52-.17-1-.34-1.4-.51s-.85-.36-1.32-.6A9.74,9.74,0,0,1,73,11.39a7.62,7.62,0,0,1-1-.9,5,5,0,0,1-.83-1.11A6.76,6.76,0,0,1,70.64,8a6.74,6.74,0,0,1-.2-1.66,5.85,5.85,0,0,1,.94-3.21A6.55,6.55,0,0,1,73.93.87,7.9,7.9,0,0,1,77.49,0,11.2,11.2,0,0,1,85,2.81L82.08,6.56c-1.72-1.38-3.19-2.07-4.43-2.07a2.18,2.18,0,0,0-1.43.44,1.58,1.58,0,0,0-.54,1.23,1.4,1.4,0,0,0,.65,1.19,11.81,11.81,0,0,0,2.48,1.18,33.82,33.82,0,0,1,3.67,1.58,5.52,5.52,0,0,1,2.61,2.78,6.63,6.63,0,0,1,.37,2.27A6.89,6.89,0,0,1,85,17.82a5.52,5.52,0,0,1-1.28,2,7,7,0,0,1-1.83,1.3,8.25,8.25,0,0,1-2.09.76,11,11,0,0,1-2.14.22A10.75,10.75,0,0,1,73.45,21.2Z" style="fill:#74b5e3"></path><path d="M87.39.28H92.5V21.76H87.39Z" style="fill:#74b5e3"></path><path d="M95.48.28h8.16a9.73,9.73,0,0,1,3.42.56,5.91,5.91,0,0,1,2.4,1.55,6.54,6.54,0,0,1,1.37,2.34,9,9,0,0,1,.46,3,7.39,7.39,0,0,1-1,4,5.85,5.85,0,0,1-2.79,2.4,10.51,10.51,0,0,1-4.23.78h-2.81v6.92h-5Zm7.1,10.11a3.92,3.92,0,0,0,2.56-.74,2.56,2.56,0,0,0,.91-2.08,2.6,2.6,0,0,0-.87-2,3.68,3.68,0,0,0-2.53-.78h-2.2v5.63Z" style="fill:#74b5e3"></path><path d="M123.35,17.92H115.8l-1.24,3.84h-5.28L117.15.28H122l7.9,21.48H124.6ZM122,13.64,119.6,6.39h-.06l-2.35,7.25Z" style="fill:#74b5e3"></path><path d="M77.81,53.3a10.51,10.51,0,0,1-3-1.38,10.27,10.27,0,0,1-2.38-2.22,9.81,9.81,0,0,1-1.56-3.06,12.9,12.9,0,0,1-.55-3.81A12.5,12.5,0,0,1,71,38.46,10.35,10.35,0,0,1,73.14,35a9.4,9.4,0,0,1,3.43-2.35,11.86,11.86,0,0,1,4.58-.86,12.08,12.08,0,0,1,4.74,1,10.75,10.75,0,0,1,3.94,2.84l-3.58,3a7.11,7.11,0,0,0-5.12-2.12,5.4,5.4,0,0,0-2.15.43,5.25,5.25,0,0,0-1.77,1.22,5.86,5.86,0,0,0-1.21,2,7.63,7.63,0,0,0-.45,2.67,7.32,7.32,0,0,0,.4,2.45,6.17,6.17,0,0,0,1.13,2,5.35,5.35,0,0,0,1.83,1.36,5.83,5.83,0,0,0,2.43.5,7.53,7.53,0,0,0,3.67-1V45.75H80.9V41.49h9v9.65A11.53,11.53,0,0,1,86.09,53a15.65,15.65,0,0,1-4.75.73A13.49,13.49,0,0,1,77.81,53.3Z" style="fill:#939393"></path><path d="M101.18,38.46v5.1q-.42,0-1.11,0a3.73,3.73,0,0,0-1.86.43,2.83,2.83,0,0,0-1.16,1.19,3.83,3.83,0,0,0-.37,1.73v6.64H92V38.73h4.73v2h.06A5.83,5.83,0,0,1,98,39.47a5.22,5.22,0,0,1,1.46-.76,4.72,4.72,0,0,1,1.58-.26Z" style="fill:#939393"></path><path d="M105.87,53.25a7.4,7.4,0,0,1-2.53-1.58,7.23,7.23,0,0,1-1.62-2.44,8.39,8.39,0,0,1,0-6.18,7.14,7.14,0,0,1,1.62-2.44A7.57,7.57,0,0,1,105.87,39a9.06,9.06,0,0,1,3.25-.57,8.68,8.68,0,0,1,4.13,1,7,7,0,0,1,2.83,2.73,8.41,8.41,0,0,1,0,8,6.93,6.93,0,0,1-2.83,2.72,8.68,8.68,0,0,1-4.13,1A9.06,9.06,0,0,1,105.87,53.25Zm5.53-4.62a3.88,3.88,0,0,0,0-5,3.24,3.24,0,0,0-4.62,0,3.86,3.86,0,0,0,0,5,3.15,3.15,0,0,0,4.58,0Z" style="fill:#939393"></path><path d="M132.68,38.73V53.52h-4.74V51.85h-.07a5.19,5.19,0,0,1-4.18,1.95q-5.32,0-5.33-6.3V38.73h4.73v7.6a4.55,4.55,0,0,0,.52,2.52,2,2,0,0,0,1.73.74,2.33,2.33,0,0,0,1.87-.9,4.13,4.13,0,0,0,.73-2.64V38.73Z" style="fill:#939393"></path><path d="M146.46,39a6.32,6.32,0,0,1,2.15,1.57A7.4,7.4,0,0,1,150,43a9.26,9.26,0,0,1,.51,3.11,8.67,8.67,0,0,1-.89,4,6.55,6.55,0,0,1-2.48,2.7,6.88,6.88,0,0,1-3.59.95,5,5,0,0,1-4-1.73h-.07V59.5h-4.73V38.73h4.74v1.59h.06a5.28,5.28,0,0,1,4.21-1.87A6.32,6.32,0,0,1,146.46,39Zm-1.58,9.65a3.57,3.57,0,0,0,.88-2.52,4.18,4.18,0,0,0-.24-1.44,3.33,3.33,0,0,0-.67-1.11,2.8,2.8,0,0,0-1-.71,3.1,3.1,0,0,0-1.25-.25,3,3,0,0,0-2.34,1,3.56,3.56,0,0,0-.91,2.52,3.51,3.51,0,0,0,.92,2.53,3.12,3.12,0,0,0,2.34,1A2.93,2.93,0,0,0,144.88,48.67Z" style="fill:#939393"></path><path d="M34.86,4.18H51.6A2.12,2.12,0,0,1,53.72,6.3V22.94h4V6.3A6.14,6.14,0,0,0,51.6.17H34.86Z" style="fill:#74b5e3"></path><path d="M4,22.94V6.3A2.12,2.12,0,0,1,6.13,4.18H22.74v-4H6.13A6.14,6.14,0,0,0,0,6.3V22.94Z" style="fill:#74b5e3"></path><path d="M22.74,53.89H6.13A2.12,2.12,0,0,1,4,51.76V35.06H0v16.7A6.14,6.14,0,0,0,6.13,57.9H22.74Z" style="fill:#74b5e3"></path><path d="M53.72,35.06v16.7a2.12,2.12,0,0,1-2.12,2.13H34.86v4H51.6a6.14,6.14,0,0,0,6.13-6.14V35.06Z" style="fill:#74b5e3"></path></g></svg> 